<svg xmlns="http://www.w3.org/2000/svg" width="281.333" height="141.333" xmlns:v="https://vecta.io/nano"><rect paint-order="stroke markers fill" fill="#c8beb7" ry="15.735" y=".066" x=".362" height="141.285" width="280.941"/><path fill="#6594b2" d="M99.336 136.068H25.508c-6.795 0-12.304-5.507-12.304-12.304V25.325h0v92.286c0 6.797 5.509 12.304 12.304 12.304h73.829c6.795 0 12.304-5.507 12.304-12.304v6.153c0 6.797-5.509 12.304-12.304 12.304"/><path fill="#495672" d="M111.643 117.611c0 6.797-5.509 12.304-12.304 12.304H25.51c-6.795 0-12.304-5.507-12.304-12.304V19.171c0-6.797 5.509-12.304 12.304-12.304h73.829c6.795 0 12.304 5.507 12.304 12.304v98.439"/><path fill="#404a5f" d="M94.21 39.168a2.076 2.076 0 0 1-1.449-.591l-8.804-8.633-8.804 8.633a2.076 2.076 0 0 1-1.449.591l-.787-.152c-.764-.311-1.264-1.047-1.264-1.86V13.021h24.61v24.135c0 .812-.501 1.546-1.267 1.86l-.784.152"/><path fill="#c84755" d="M71.651 6.867v24.135a2.02 2.02 0 0 0 1.264 1.86l.787.152a2.076 2.076 0 0 0 1.449-.591l8.804-8.633 8.804 8.633a2.076 2.076 0 0 0 1.449.591l.784-.152c.766-.311 1.267-1.047 1.267-1.86V6.867H71.651"/><path fill="#e1e3cc" d="M34.736 129.915h-9.229V6.867h9.229v123.047"/><path fill="#e6e6e6" d="M90.853 74.801c-.397.088-.909.311-2.704 1.167l-2.771 1.285c-2.226.955-4.054 1.507-5.625 1.693l-1.458.24c-2.1.51-4.409 1.836-6.788 3.899-1.615 1.403-3.069 2.898-5.117 5.26l-1.133 1.269c-1.186 1.269-2.254 2.725-3.548 4.84l-2.079 3.355-.757 1.186-.927 1.458c-1.241 1.922-1.753 2.815-2.236 3.899-.388.872-.837 2.159-.957 2.739a2.515 2.515 0 0 1-.21.591c-.607 1.209-1.283 2.9-1.638 4.123-.263.895-.487 1.876-.487 2.127 0 .104-.028.15-.187.305a3.415 3.415 0 0 0-.3.341l-.118.157.088.21c.245.6.671.941 1.232.985a.992.992 0 0 0 .473-.058 2.792 2.792 0 0 0 1.163-.727c.09-.095.18-.159.203-.15.069.028.277-.099.718-.441.976-.748 1.5-1.084 1.682-1.084s.524.238 1.135.764a8.398 8.398 0 0 1 1.306 1.338c.872 1.036 1.269 1.405 1.802 1.668a2.238 2.238 0 0 0 .985.256c.591.032 1.26-.136 2.053-.524.891-.434 1.606-.976 3.011-2.277.491-.455 2.284-2.291 2.563-2.623.051-.058.099-.106.118-.106s.037.141.046.307l.088.761c.171 1.216.434 1.952.914 2.556a1.154 1.154 0 0 0 .494.411c.395.201.694.27 1.163.27.738 0 1.532-.281 2.635-.927l4.077-2.667c2.074-1.375 2.817-1.779 3.325-1.793.256-.007.316.044.521.434a1.454 1.454 0 0 0 .411.547c1.041.897 2.263.634 2.642-.568.028-.083.058-.281.069-.441.021-.281.016-.298-.074-.434a1.8 1.8 0 0 0-.715-.671c-.628-.33-1.202-.448-2.023-.413-1.225.046-2.579.473-4.474 1.41-1.41.694-3.465 1.887-4.773 2.757l-.734.491-.09-.178c-.208-.401-.307-.985-.36-2.104-.039-.838-.074-1.142-.171-1.509-.15-.577-.388-1.006-.731-1.322-.628-.581-1.456-.554-2.411.074-.54.358-.865.671-1.973 1.89-2.176 2.404-3.392 3.562-4.517 4.31-.397.263-.395.268-.764-.286a9.03 9.03 0 0 0-1.151-1.449c-.881-.904-1.693-1.458-2.549-1.74a3.645 3.645 0 0 0-1.338-.201c-.927 0-1.638.187-2.547.674-.155.083-.284.143-.293.136-.016-.021.171-.708.374-1.38l.595-1.742a3.276 3.276 0 0 1 .337.046 5.237 5.237 0 0 0 1.952-.141c.604-.157 1.853-.731 2.033-.939.122-.141.136-.298.035-.425-.111-.143-.261-.171-.718-.127l-.964.09c-.897.083-1.756.023-1.917-.136-.039-.039-.037-.069.023-.208l.067-.159.314-.044 6.603-.842 1.167-.099c.634-.032.944-.097 1.322-.268.607-.275.911-.614 1.735-1.947.473-.768.782-1.128 1.375-1.603.731-.591 1.29-1.107 4.13-3.846l5.175-4.564c1.511-.761 4.718-2.674 6.894-4.116 2.104-1.391 3.408-2.393 4.282-3.274.614-.621.808-.934.957-1.53.27-1.075.311-2.293.136-4.294l-.141-2.399c-.002-1.241.129-1.977.528-2.9.171-.401.171-.503 0-.611-.104-.06-.307-.076-.473-.039zm-16.538 39.369c.067.037.083.12.037.189-.021.03-.06.014-.15-.06-.067-.058-.122-.118-.122-.134 0-.039.157-.039.238.005z"/><text stroke="#000" fill="#f9f9f9" word-spacing="0" letter-spacing="0" font-family="sans-serif" font-size="43.068" y="59.784" x="119.632" xml:space="preserve"><tspan stroke-width=".923" font-family="Daniel Black" font-weight="normal" y="59.784" x="119.632">Publi</tspan><tspan stroke-width=".923" font-family="Daniel Black" font-weight="normal" y="115.343" x="119.632">S2low</tspan></text></svg>