<?xml version="1.0" encoding="UTF-8" standalone="no"?>
<svg
   xmlns:dc="http://purl.org/dc/elements/1.1/"
   xmlns:cc="http://creativecommons.org/ns#"
   xmlns:rdf="http://www.w3.org/1999/02/22-rdf-syntax-ns#"
   xmlns:svg="http://www.w3.org/2000/svg"
   xmlns="http://www.w3.org/2000/svg"
   xmlns:sodipodi="http://sodipodi.sourceforge.net/DTD/sodipodi-0.dtd"
   xmlns:inkscape="http://www.inkscape.org/namespaces/inkscape"
   inkscape:export-ydpi="300"
   inkscape:export-xdpi="300"
   inkscape:export-filename="F:\wamp64\www\zzzzz_s2low\img\PubliS2low_logo_300.png"
   inkscape:version="1.0 (4035a4fb49, 2020-05-01)"
   sodipodi:docname="PubliS2low_logo.svg"
   id="svg22"
   version="1.1"
   height="141.33299"
   width="141.33301">
  <metadata
     id="metadata28">
    <rdf:RDF>
      <cc:Work
         rdf:about="">
        <dc:format>image/svg+xml</dc:format>
        <dc:type
           rdf:resource="http://purl.org/dc/dcmitype/StillImage" />
        <dc:title></dc:title>
      </cc:Work>
    </rdf:RDF>
  </metadata>
  <defs
     id="defs26" />
  <sodipodi:namedview
     inkscape:current-layer="svg22"
     inkscape:window-maximized="1"
     inkscape:window-y="-8"
     inkscape:window-x="-8"
     inkscape:cy="81.894631"
     inkscape:cx="193.74015"
     inkscape:zoom="4.7630387"
     showgrid="false"
     id="namedview24"
     inkscape:window-height="1017"
     inkscape:window-width="2560"
     inkscape:pageshadow="2"
     inkscape:pageopacity="0"
     guidetolerance="10"
     gridtolerance="10"
     objecttolerance="10"
     borderopacity="1"
     bordercolor="#666666"
     pagecolor="#ffffff" />
  <rect
     style="stroke-width:0.708198"
     id="rect2"
     width="140.90434"
     height="141.285"
     x="0.36199999"
     y="0.066"
     ry="15.735"
     fill="#c8beb7"
     paint-order="stroke markers fill" />
  <path
     id="path4"
     d="M 109.336,136.068 H 35.508 c -6.795,0 -12.304,-5.507 -12.304,-12.304 v -98.439 0 92.286 c 0,6.797 5.509,12.304 12.304,12.304 h 73.829 c 6.795,0 12.304,-5.507 12.304,-12.304 v 6.153 c 0,6.797 -5.509,12.304 -12.304,12.304"
     fill="#6594b2" />
  <path
     id="path6"
     d="m 121.643,117.611 c 0,6.797 -5.509,12.304 -12.304,12.304 H 35.51 c -6.795,0 -12.304,-5.507 -12.304,-12.304 v -98.44 c 0,-6.797 5.509,-12.304 12.304,-12.304 h 73.829 c 6.795,0 12.304,5.507 12.304,12.304 v 98.439"
     fill="#495672" />
  <path
     id="path8"
     d="m 104.21,39.168 a 2.076,2.076 0 0 1 -1.449,-0.591 l -8.804,-8.633 -8.804,8.633 a 2.076,2.076 0 0 1 -1.449,0.591 l -0.787,-0.152 c -0.764,-0.311 -1.264,-1.047 -1.264,-1.86 V 13.021 h 24.61 v 24.135 c 0,0.812 -0.501,1.546 -1.267,1.86 l -0.784,0.152"
     fill="#404a5f" />
  <path
     id="path10"
     d="m 81.651,6.867 v 24.135 a 2.02,2.02 0 0 0 1.264,1.86 l 0.787,0.152 a 2.076,2.076 0 0 0 1.449,-0.591 l 8.804,-8.633 8.804,8.633 a 2.076,2.076 0 0 0 1.449,0.591 l 0.784,-0.152 c 0.766,-0.311 1.267,-1.047 1.267,-1.86 V 6.867 H 81.651"
     fill="#c84755" />
  <path
     id="path12"
     d="M 44.736,129.915 H 35.507 V 6.867 h 9.229 v 123.047"
     fill="#e1e3cc" />
  <path
     id="path14"
     d="m 100.853,74.801 c -0.397,0.088 -0.909,0.311 -2.704,1.167 l -2.771,1.285 c -2.226,0.955 -4.054,1.507 -5.625,1.693 l -1.458,0.24 c -2.1,0.51 -4.409,1.836 -6.788,3.899 -1.615,1.403 -3.069,2.898 -5.117,5.26 l -1.133,1.269 c -1.186,1.269 -2.254,2.725 -3.548,4.84 l -2.079,3.355 -0.757,1.186 -0.927,1.458 c -1.241,1.922 -1.753,2.815 -2.236,3.899 -0.388,0.872 -0.837,2.159 -0.957,2.739 a 2.515,2.515 0 0 1 -0.21,0.591 c -0.607,1.209 -1.283,2.9 -1.638,4.123 -0.263,0.895 -0.487,1.876 -0.487,2.127 0,0.104 -0.028,0.15 -0.187,0.305 a 3.415,3.415 0 0 0 -0.3,0.341 l -0.118,0.157 0.088,0.21 c 0.245,0.6 0.671,0.941 1.232,0.985 a 0.992,0.992 0 0 0 0.473,-0.058 2.792,2.792 0 0 0 1.163,-0.727 c 0.09,-0.095 0.18,-0.159 0.203,-0.15 0.069,0.028 0.277,-0.099 0.718,-0.441 0.976,-0.748 1.5,-1.084 1.682,-1.084 0.182,0 0.524,0.238 1.135,0.764 a 8.398,8.398 0 0 1 1.306,1.338 c 0.872,1.036 1.269,1.405 1.802,1.668 a 2.238,2.238 0 0 0 0.985,0.256 c 0.591,0.032 1.26,-0.136 2.053,-0.524 0.891,-0.434 1.606,-0.976 3.011,-2.277 0.491,-0.455 2.284,-2.291 2.563,-2.623 0.051,-0.058 0.099,-0.106 0.118,-0.106 0.019,0 0.037,0.141 0.046,0.307 l 0.088,0.761 c 0.171,1.216 0.434,1.952 0.914,2.556 a 1.154,1.154 0 0 0 0.494,0.411 c 0.395,0.201 0.694,0.27 1.163,0.27 0.738,0 1.532,-0.281 2.635,-0.927 l 4.077,-2.667 c 2.074,-1.375 2.817,-1.779 3.325,-1.793 0.256,-0.007 0.316,0.044 0.521,0.434 a 1.454,1.454 0 0 0 0.411,0.547 c 1.041,0.897 2.263,0.634 2.642,-0.568 0.028,-0.083 0.058,-0.281 0.069,-0.441 0.021,-0.281 0.016,-0.298 -0.074,-0.434 a 1.8,1.8 0 0 0 -0.715,-0.671 c -0.628,-0.33 -1.202,-0.448 -2.023,-0.413 -1.225,0.046 -2.579,0.473 -4.474,1.41 -1.41,0.694 -3.465,1.887 -4.773,2.757 l -0.734,0.491 -0.09,-0.178 c -0.208,-0.401 -0.307,-0.985 -0.36,-2.104 -0.039,-0.838 -0.074,-1.142 -0.171,-1.509 -0.15,-0.577 -0.388,-1.006 -0.731,-1.322 -0.628,-0.581 -1.456,-0.554 -2.411,0.074 -0.54,0.358 -0.865,0.671 -1.973,1.89 -2.176,2.404 -3.392,3.562 -4.517,4.31 -0.397,0.263 -0.395,0.268 -0.764,-0.286 a 9.03,9.03 0 0 0 -1.151,-1.449 c -0.881,-0.904 -1.693,-1.458 -2.549,-1.74 a 3.645,3.645 0 0 0 -1.338,-0.201 c -0.927,0 -1.638,0.187 -2.547,0.674 -0.155,0.083 -0.284,0.143 -0.293,0.136 -0.016,-0.021 0.171,-0.708 0.374,-1.38 l 0.595,-1.742 a 3.276,3.276 0 0 1 0.337,0.046 5.237,5.237 0 0 0 1.952,-0.141 c 0.604,-0.157 1.853,-0.731 2.033,-0.939 0.122,-0.141 0.136,-0.298 0.035,-0.425 -0.111,-0.143 -0.261,-0.171 -0.718,-0.127 l -0.964,0.09 c -0.897,0.083 -1.756,0.023 -1.917,-0.136 -0.039,-0.039 -0.037,-0.069 0.023,-0.208 l 0.067,-0.159 0.314,-0.044 6.603,-0.842 1.167,-0.099 c 0.634,-0.032 0.944,-0.097 1.322,-0.268 0.607,-0.275 0.911,-0.614 1.735,-1.947 0.473,-0.768 0.782,-1.128 1.375,-1.603 0.731,-0.591 1.29,-1.107 4.13,-3.846 l 5.175,-4.564 c 1.511,-0.761 4.718,-2.674 6.894,-4.116 2.104,-1.391 3.408,-2.393 4.282,-3.274 0.614,-0.621 0.808,-0.934 0.957,-1.53 0.27,-1.075 0.311,-2.293 0.136,-4.294 l -0.141,-2.399 c -0.002,-1.241 0.129,-1.977 0.528,-2.9 0.171,-0.401 0.171,-0.503 0,-0.611 -0.104,-0.06 -0.307,-0.076 -0.473,-0.039 z M 84.315,114.17 c 0.067,0.037 0.083,0.12 0.037,0.189 -0.021,0.03 -0.06,0.014 -0.15,-0.06 -0.067,-0.058 -0.122,-0.118 -0.122,-0.134 0,-0.039 0.157,-0.039 0.238,0.005 z"
     fill="#e6e6e6" />
  <text
     style="stroke-width:0.331009"
     id="text20"
     xml:space="preserve"
     x="68.732346"
     y="53.561932"
     font-size="14.2559px"
     font-family="sans-serif"
     letter-spacing="0"
     word-spacing="0"
     fill="#f9f9f9"
     stroke="#000000"><tspan
       id="tspan16"
       x="68.732346"
       y="53.561932"
       font-weight="normal"
       font-family="'Daniel Black'"
       stroke-width="0.305522">Publi</tspan><tspan
       id="tspan18"
       x="68.732346"
       y="71.952477"
       font-weight="normal"
       font-family="'Daniel Black'"
       stroke-width="0.305522">S2low</tspan></text>
</svg>
